<?xml version="1.0" standalone="no"?>
<!DOCTYPE svg PUBLIC "-//W3C//DTD SVG 20010904//EN"
 "http://www.w3.org/TR/2001/REC-SVG-20010904/DTD/svg10.dtd">
<svg version="1.0" xmlns="http://www.w3.org/2000/svg"
 width="256.000000pt" height="256.000000pt" viewBox="0 0 256.000000 256.000000"
 preserveAspectRatio="xMidYMid meet">

<g transform="translate(0.000000,256.000000) scale(0.100000,-0.100000)"
fill="#000000" stroke="none">
<path d="M627 1613 c-4 -3 -7 -48 -7 -100 l0 -93 -95 0 -95 0 0 -50 0 -50 95
0 94 0 3 -97 3 -98 45 0 45 0 3 97 3 97 97 3 97 3 0 45 0 45 -97 3 -98 3 0 99
0 100 -43 0 c-24 0 -47 -3 -50 -7z"/>
<path d="M983 1493 c3 -10 15 -54 26 -98 35 -136 46 -168 62 -178 34 -21 46
-1 78 132 37 154 37 161 11 161 -20 0 -27 -16 -50 -125 -18 -85 -21 -83 -49
20 -26 94 -29 100 -55 103 -23 3 -27 0 -23 -15z"/>
<path d="M1220 1507 c0 -2 -11 -66 -25 -142 -14 -80 -21 -143 -16 -148 22 -22
46 -1 55 46 8 44 11 48 34 45 21 -2 27 -11 36 -48 9 -35 16 -46 34 -48 12 -2
22 1 22 6 0 19 -50 274 -55 283 -5 8 -85 14 -85 6z m59 -129 c1 -19 -4 -28
-14 -28 -16 0 -19 20 -8 71 7 33 7 33 14 9 4 -14 7 -37 8 -52z"/>
<path d="M1415 1490 c-22 -24 -32 -128 -21 -205 9 -57 42 -77 119 -73 52 3 52
3 55 40 4 50 -11 102 -31 106 -14 3 -17 -5 -17 -48 l0 -51 -32 3 -33 3 -3 88
c-3 104 5 120 57 115 30 -3 36 0 36 17 0 17 -8 20 -56 23 -46 2 -58 -1 -74
-18z"/>
<path d="M1622 1378 c-28 -166 -28 -168 1 -168 20 0 25 7 33 48 8 41 12 47 34
47 20 0 26 -7 35 -45 8 -35 16 -46 33 -48 16 -2 22 2 22 15 0 23 -25 161 -41
231 l-12 52 -42 0 -41 0 -22 -132z m82 10 c6 -34 5 -38 -15 -38 -19 0 -21 4
-15 31 3 17 6 39 6 47 0 28 17 -1 24 -40z"/>
<path d="M1830 1490 c-12 -12 -20 -33 -20 -54 0 -28 8 -41 42 -70 23 -20 45
-36 49 -36 14 0 29 -38 23 -55 -7 -17 -16 -17 -85 0 -19 5 -28 2 -32 -9 -8
-21 31 -46 83 -53 56 -8 90 23 90 82 0 47 -20 74 -69 95 -18 7 -34 22 -37 36
-9 36 4 47 47 40 34 -5 39 -4 39 13 0 23 -19 31 -71 31 -26 0 -46 -7 -59 -20z"/>
</g>
</svg>
